<svg id="Logo" xmlns="http://www.w3.org/2000/svg" xmlns:xlink="http://www.w3.org/1999/xlink" width="165" height="41.731" viewBox="0 0 165 41.731">
  <defs>
    <clipPath id="clip-path">
      <rect id="Rectangle_3" data-name="Rectangle 3" width="165" height="41.731" fill="none"/>
    </clipPath>
  </defs>
  <g id="Group_1" data-name="Group 1" clip-path="url(#clip-path)">
    <path id="Path_1" data-name="Path 1" d="M115.36,32.66a5.187,5.187,0,0,1-5.318-5.442,5.34,5.34,0,1,1,10.678,0,5.22,5.22,0,0,1-5.36,5.442m39.085.124a5.262,5.262,0,0,1-5.4-5.566,5.274,5.274,0,0,1,5.4-5.525,5.341,5.341,0,0,1,5.484,5.525,5.327,5.327,0,0,1-5.484,5.566m-82.541,0a5.3,5.3,0,0,1-5.442-5.566,5.443,5.443,0,1,1,10.885,0A5.3,5.3,0,0,1,71.9,32.784M30.716,25.4a4.886,4.886,0,0,1,5.154-4,4.715,4.715,0,0,1,4.865,4Zm5.525,12.2a9.782,9.782,0,0,0,8.04-3.5l-3.546-3.051a5.235,5.235,0,0,1-4.412,1.979c-3.01,0-4.865-1.237-5.525-3.711H45.6a12.955,12.955,0,0,0,.206-2.1c0-5.855-4.164-10.349-9.936-10.349A10.063,10.063,0,0,0,25.48,27.218c0,5.937,4.164,10.39,10.761,10.39m117.256,0a7.7,7.7,0,0,0,6.432-2.886v2.35H165V17.406h-5.071v2.309A7.787,7.787,0,0,0,153.5,16.87c-5.154,0-9.524,4.535-9.524,10.349,0,5.9,4.37,10.39,9.524,10.39m-82.541,0a7.622,7.622,0,0,0,6.391-2.886v2.35h5.071V17.406H77.346v2.309a7.706,7.706,0,0,0-6.391-2.845c-5.195,0-9.524,4.576-9.524,10.349,0,5.855,4.329,10.39,9.524,10.39m14.1-.536h5.071V26.435c0-3.257,1.732-4.865,4.329-4.865a3.683,3.683,0,0,1,3.876,4.041V37.072H103.4V24.992c0-5.03-3.133-8.122-7.421-8.122-2.68,0-4.618.907-5.855,2.762V17.406H85.056Zm30.3.536a10.369,10.369,0,1,0-10.39-10.39,10.295,10.295,0,0,0,10.39,10.39m16.492-.536h6.061c1.649-9.648,5.318-16.533,9.648-20.161l-3.546-3.051a26.892,26.892,0,0,0-9.194,17.523l-4.865-13.977h-5.566ZM52.444,8.376H47.372v28.7h5.071Zm7.3,0h-5.03v28.7h5.03Zm-36.859,30.8c-1.237-.082-1.814-1.525-1.814-3.3,0-1.938,1.278-6.1,1.773-8.081.495-2.02.7-5.236-1.113-7.091C28.613,17.942,38.8,8.5,40.116,6.439,41.394,4.377,41.683,1.78,39.869.46S35.127.831,33.4,3.346c-4.783,6.885-7.669,10.266-10.926,13.111-2.556,2.185-3.793,2.226-5.03,2.391.206-.33,4.7-7.669,6.473-9.978,2.1-2.762-.495-3.793-3.01-2.061a81.667,81.667,0,0,1-9.318,5.607C3.01,16.828.948,18.89.948,21.529A2.573,2.573,0,0,0,3.5,24.167c3.381,0,6.679-5.978,8.328-7.5.619-.577,2.1-1.855,2.639-1.855.206,0,.33.124.33.495,0,1.154-2.226,4.412-5.69,8.122C4.123,28.867,0,31.011,0,34.475a3.384,3.384,0,0,0,3.546,3.5c3.834,0,6.432-5.154,7.957-7.71.619-1.031,4.041-7.38,4.741-8.741.783.371,1.237,1.2.99,2.886-.454,3.051-3.175,6.72-3.175,11.833,0,4.164,3.875,5.483,5.442,5.483,1.4,0,3.338-.523,3.793-1.979a.436.436,0,0,0-.412-.577" transform="translate(0 0)" fill="#f60b45"/>
  </g>
</svg>
